<svg xmlns="http://www.w3.org/2000/svg" viewBox="0 0 196 48" width="196" height="48">
  <path d="M29.6,47.3c-7.4,0-13.6-2.5-18.6-7.5C5.9,34.8,3.4,28.6,3.4,21.2c0-7.4,2.5-13.6,7.5-18.6C15.9-2.4,22.1-4.9,29.5-4.9
    c4.5,0,8.6,1,12.4,3c3.8,2,6.8,4.7,9,8.2l-8.4,4.9c-1.3-2-3-3.6-5.1-4.7c-2.1-1.1-4.4-1.7-6.9-1.7c-4.4,0-8.1,1.5-11.1,4.6
    c-3,3-4.5,6.8-4.5,11.3c0,4.5,1.5,8.2,4.5,11.3c3,3,6.7,4.6,11.1,4.6c2.5,0,4.8-0.6,6.9-1.7c2.1-1.1,3.8-2.7,5.1-4.7l8.4,4.9
    c-2.2,3.4-5.2,6.1-9,8.2C38.2,46.3,34,47.3,29.6,47.3z" fill="#0F3A46"/>
  <path d="M84.5,46.4c-4.4,0-8.1-1.5-11.1-4.6c-3-3-4.5-6.8-4.5-11.3V-3.9h10.4v34.3c0,1.9,0.6,3.4,1.9,4.7c1.3,1.3,2.8,1.9,4.7,1.9
    c1.9,0,3.4-0.6,4.7-1.9c1.3-1.3,1.9-2.8,1.9-4.7V-3.9h10.4v34.3c0,4.5-1.5,8.2-4.5,11.3C92.6,44.9,88.9,46.4,84.5,46.4z" fill="#0F3A46"/>
  <path d="M120.5,46.4c-4.5,0-8.2-1.5-11.3-4.6c-3-3-4.6-6.8-4.6-11.3c0-4.5,1.5-8.2,4.6-11.3c3-3,6.8-4.6,11.3-4.6
    c2.9,0,5.5,0.7,7.9,2.1c2.4,1.4,4.2,3.3,5.6,5.7V-3.9h10.4v49.4h-10.4v-7.8c-1.3,2.4-3.2,4.3-5.6,5.7
    C126,45.7,123.4,46.4,120.5,46.4z M123.1,37c2.5,0,4.6-0.9,6.4-2.6c1.8-1.8,2.6-3.9,2.6-6.4c0-2.5-0.9-4.6-2.6-6.4
    c-1.8-1.8-3.9-2.6-6.4-2.6c-2.5,0-4.6,0.9-6.4,2.6c-1.8,1.8-2.6,3.9-2.6,6.4c0,2.5,0.9,4.6,2.6,6.4C118.5,36.1,120.6,37,123.1,37z" fill="#0F3A46"/>
  <path d="M166.4,46.4c-4.5,0-8.2-1.5-11.3-4.6c-3-3-4.6-6.8-4.6-11.3c0-4.5,1.5-8.2,4.6-11.3c3-3,6.8-4.6,11.3-4.6
    c2.9,0,5.5,0.7,7.9,2.1c2.4,1.4,4.2,3.3,5.6,5.7v-7h10.4v33.6h-10.4v-7.8c-1.3,2.4-3.2,4.3-5.6,5.7
    C171.9,45.7,169.3,46.4,166.4,46.4z M169,37c2.5,0,4.6-0.9,6.4-2.6c1.8-1.8,2.6-3.9,2.6-6.4c0-2.5-0.9-4.6-2.6-6.4
    c-1.8-1.8-3.9-2.6-6.4-2.6c-2.5,0-4.6,0.9-6.4,2.6c-1.8,1.8-2.6,3.9-2.6,6.4c0,2.5,0.9,4.6,2.6,6.4C164.4,36.1,166.5,37,169,37z" fill="#0F3A46"/>
  <path d="M196,45.5h-10.4V15.5H196V45.5z M190.8,10.7c-1.6,0-3-0.6-4.1-1.7c-1.1-1.1-1.7-2.5-1.7-4.1c0-1.6,0.6-3,1.7-4.1
    c1.1-1.1,2.5-1.7,4.1-1.7c1.6,0,3,0.6,4.1,1.7c1.1,1.1,1.7,2.5,1.7,4.1c0,1.6-0.6,3-1.7,4.1C193.8,10.1,192.4,10.7,190.8,10.7z" fill="#0F3A46"/>
</svg>
